<?xml version="1.0" encoding="UTF-8"?>
<!-- Created with Inkscape (http://www.inkscape.org/) -->
<svg width="585" height="427" version="1.1" viewBox="0 0 585 427" xmlns="http://www.w3.org/2000/svg">
 <path d="m241.5 404.99c-13.827-0.78932-31.768-2.3526-57-4.9669-23.827-2.4686-50.2-8.1186-59.412-12.728-6.5671-3.2859-8.8037-6.8038-7.4158-11.664 0.716-2.5073 2.1377-3.754 7.1242-6.247 3.4264-1.713 8.5862-3.6132 11.466-4.2225 2.8802-0.60932 9.5117-2.0054 14.737-3.1023 11.815-2.4804 36.176-5.4714 63-7.7348 22.049-1.8605 103.11-2.559 126-1.0857 42.723 2.7492 73.78 6.427 99.119 11.738 21.849 4.5795 27.881 7.725 27.881 14.539 0 3.4398-2.4005 6.1878-7.7817 8.9083-5.7972 2.9307-31.041 8.5067-47.718 10.54-4.95 0.60361-10.8 1.319-13 1.5897-27.026 3.326-50.961 4.5648-95 4.9166-25.85 0.2065-53.75-0.01-62-0.48081zm114.5-6.9274c43.243-2.8786 79.815-7.9633 94.765-13.175 3.1542-1.0996 6.4912-2.2437 7.4156-2.5423 2.4587-0.79432 2.9304-2.9502 1.0017-4.579-2.2541-1.9036-14.975-5.3444-30.683-8.2988-33.422-6.2866-98.491-11.492-143-11.44-72.347 0.0847-156.12 10.45-162.05 20.052-1.0555 1.7078 0.67849 2.824 8.4966 5.469 20.607 6.972 60.137 12.316 114.05 15.42 18.248 1.0505 89.418 0.46464 110-0.90547zm106-43.227c-20.992-7.4589-56.532-14.251-93-17.773-96.405-9.3109-203.64-2.1416-250.65 16.757l-5.1477 2.0696-0.58862-2.1951c-1.5036-5.6071-1.715-5.466 16.884-11.263 15.752-4.9094 48.578-10.817 71.5-12.867 3.575-0.31976 11.225-1.0091 17-1.5319s18.375-1.2061 28-1.5186 21.171-0.79379 25.657-1.0697c9.4637-0.58195 59.393 1.0569 79.843 2.6207 33.198 2.5386 67.877 7.7704 93 14.03 13.091 3.2618 27.691 8.2384 28.221 9.6191 0.61969 1.6149-0.50626 6.3093-1.4901 6.2128-0.40202-0.0394-4.556-1.4308-9.231-3.0919zm2-21.076c-17.197-5.3736-39.583-10.458-60.5-13.742-21.981-3.4507-25.808-4.0084-31.5-4.5903-3.025-0.30928-9.1-0.99057-13.5-1.514-29.974-3.5655-105.58-3.5483-142.41 0.0324-39.355 3.826-72.105 9.8184-97.76 17.888-8.0798 2.5414-9.2239 2.693-9.6226 1.2749-3.0161-10.727-18.878-66.205-25.478-89.11-4.6751-16.225-9.0827-31.75-9.7947-34.5-3.2875-12.698-9.4454-31.004-10.554-31.373-0.67559-0.22519-5.3127-2.4834-10.305-5.0182l-9.0764-4.6088-1.7228-7c-0.94754-3.85-2.5789-10.894-3.6252-15.654l-1.9024-8.6536 11.125 5.2639c12.004 5.6795 19.02 8.9599 19.303 9.0248 0.09779 0.0224 0.89212 4.3108 1.7652 9.5296 0.87306 5.2189 1.817 10.513 2.0976 11.764 0.2867 1.2785 2.6336 3.6879 5.3574 5.5 2.666 1.7736 13.532 9.2998 24.147 16.725 33.98 23.769 33.181 23.252 33.972 21.973 0.40602-0.65694 1.268-4.6321 1.9156-8.8336 2.4896-16.153 9.0833-54.031 10.587-60.817 0.38969-1.7587-0.91158-3.2636-6.7684-7.8272-3.988-3.1074-7.8394-5.9851-8.5587-6.3948-1.0216-0.58189-0.51308-2.9181 2.3229-10.673 5.247-14.347 5.6797-15.428 6.1772-15.428 0.45995 0 7.8635 6.2665 16.08 13.61l4.5987 4.1103-3.1014 8.3897c-5.1696 13.984-5.9358 10.856 6.0965 24.89 14.938 17.423 27.266 31.901 36.615 43 6.2537 7.425 11.782 13.5 12.286 13.5 0.50358 0 3.1122-5.1052 5.7969-11.345 2.6847-6.2397 6.0188-13.749 7.409-16.688 1.3902-2.9387 2.5277-5.5453 2.5277-5.7924s2.25-5.2317 5-11.077c2.75-5.8451 5-10.856 5-11.134s1.8-4.3667 4-9.0844 4-8.7476 4-8.9553c0-0.51465 18.013-41.53 23.682-53.924 2.5158-5.5 4.9218-11.125 5.3466-12.5 0.42482-1.375 1.4773-4.1376 2.3388-6.1391l1.5664-3.6391-7.8638-11.804c-8.9287-13.402-8.8626-10.883-0.59392-22.638 9.9147-14.095 11.91-16.78 12.474-16.78 0.54743 0 12.96 17.865 17.414 25.063l1.8642 3.0128-16.198 23.71 5.8707 14.357c10.832 26.49 31.181 73.949 41.174 96.028 2.1586 4.7692 3.9247 8.9089 3.9247 9.1993s2.1831 5.1633 4.8513 10.829c2.6682 5.6654 5.4689 12.017 6.2238 14.114 2.1844 6.0689 3.2808 6.2977 7.0373 1.4685 1.8319-2.355 4.313-5.4068 5.5135-6.7818 2.5228-2.8895 30.253-35.759 32.059-38 0.66472-0.825 4.8588-5.775 9.3201-11 9.3027-10.895 9.3146-10.964 4.1042-23.5l-2.9094-7 2.65-2.5004c7.1223-6.7202 18.236-16.242 18.549-15.893 0.19405 0.21637 1.6052 3.9934 3.1359 8.3934s3.3667 9.575 4.08 11.5 1.3166 4.0423 1.3408 4.7051-3.5561 3.9455-7.9561 7.2949-8.0009 6.4072-8.002 6.7949c-1e-3 0.38778 0.66509 4.5301 1.4805 9.2051 2.5863 14.829 9.376 57.164 10.612 66.168 0.65435 4.7671 1.5315 9.2205 1.9492 9.8963 0.55675 0.90084 2.0542 0.39692 5.61-1.8879 2.6678-1.7142 7.7755-4.9457 11.351-7.181s13.25-8.52 21.5-13.966c8.25-5.4459 17.25-11.287 20-12.981 2.75-1.6934 10.4-6.6226 17-10.954l12-7.8747 1.6743-12.201c0.92088-6.7105 1.8209-12.323 2-12.473 0.17913-0.14974 4.1507-1.9489 8.8257-3.9981s11.816-5.2639 15.868-7.1437c6.1319-2.8443 7.2933-3.1231 6.9208-1.661-0.24621 0.96633-1.9807 8.1175-3.8545 15.891l-3.4068 14.135-21.028 10.807-3.8307 12.962c-5.4255 18.359-10.477 35.206-12.132 40.462-0.77943 2.475-2.8399 9.225-4.5789 15s-5.1426 17.025-7.5637 25c-2.4211 7.975-4.8117 15.85-5.3126 17.5-10.54 34.721-14.43 47.104-14.95 47.583-0.34766 0.3207-6.2571-1.1745-13.132-3.3227zm11.448-11.01c0.94124-3.4375 3.4462-11.875 5.5665-18.75 9.371-30.385 13.022-42.394 16.874-55.5 2.263-7.7 4.5297-15.35 5.037-17 0.50733-1.65 3.023-9.975 5.5904-18.5 2.5674-8.525 5.4956-18.194 6.5071-21.486 1.0115-3.2921 1.6534-6.1714 1.4263-6.3985-0.22707-0.22707-4.1335 1.9765-8.681 4.8969-23.069 14.815-34.084 21.816-42.268 26.866-4.95 3.0544-11.841 7.4812-15.313 9.8373-3.4723 2.3561-6.4857 4.2838-6.6965 4.2838-0.21079 0-3.8812 2.2411-8.1565 4.9803-4.2753 2.7392-8.0884 4.6516-8.4737 4.25-0.81493-0.84968-4.0223-18.687-6.3347-35.23-0.88412-6.325-2.0461-13.75-2.5821-16.5s-1.8865-10.85-3.001-18c-1.1145-7.15-2.2919-13.879-2.6163-14.953-0.55629-1.842-0.71075-1.808-2.708 0.59506-1.1649 1.4017-9.093 10.793-17.618 20.87-8.525 10.077-16.831 19.934-18.458 21.905-3.3996 4.1177-21.412 24.928-23.286 26.903-1.0265 1.0819-1.4122 0.90167-2.1404-1-0.48854-1.2758-2.5779-5.9197-4.6431-10.32s-4.9704-10.925-6.4561-14.5-8.1205-18.875-14.744-34-14.829-34.025-18.234-42c-3.4049-7.975-7.0266-16.3-8.0483-18.5s-4.3124-9.85-7.3129-17-5.8428-12.937-6.3163-12.86c-0.47347 0.07674-3.6166 6.3767-6.9847 14-3.3681 7.6233-10.49 23.76-15.826 35.86s-10.3 23.35-11.029 25c-2.6878 6.0778-9.6166 21.541-18.819 42-5.1952 11.55-10.353 23.025-11.461 25.5-3.8987 8.7059-4.2171 8.8179-9.2825 3.2651-6.9817-7.6534-14.736-16.677-26.437-30.765-5.9384-7.15-11.079-13.225-11.424-13.5-0.34459-0.275-4.4035-5-9.0198-10.5s-8.7648-10.42-9.2188-10.933c-0.45408-0.51334-1.0755-0.68345-1.3809-0.37803s-2.3522 11.3-4.5485 24.433c-2.1962 13.133-4.8695 29.053-5.9406 35.378-1.0711 6.325-1.9568 11.838-1.9682 12.25-0.0496 1.7955-2.9614 0.17663-16.327-9.0777-7.8066-5.4052-18.694-12.918-24.194-16.696s-13.257-9.1109-17.237-11.852c-3.9803-2.741-7.4669-4.7538-7.7478-4.4729s0.63546 4.2993 2.0364 8.9297c1.401 4.6304 4.0607 13.819 5.9104 20.419 1.8497 6.6 4.4866 15.825 5.8597 20.5s3.6926 12.775 5.1544 18c6.4445 23.035 10.476 37.129 13.016 45.5 1.502 4.95 3.067 10.575 3.4779 12.5 0.41089 1.925 1.5305 6.132 2.488 9.3489 2.018 6.7794 0.2534 6.6199 18.526 1.6754 49.433-13.376 124.44-20.16 189.29-17.12 21.375 1.002 46.071 3.0194 56.229 4.5935 3.8618 0.59838 8.0084 1.1496 18.5 2.4593 19.002 2.3721 53.704 9.8237 69.5 14.924 9.7266 3.1404 9.981 3.0524 11.948-4.1304zm-13.199-6.5751c-0.96869-0.61507-1.0123-2.0868-0.19316-6.518 0.58192-3.1479 0.77029-6.6301 0.41859-7.7382-0.69309-2.1837 0.99796-4.9188 3.0412-4.9188 2.1307 0 2.6473 3.1627 0.84237 5.1571-1.2845 1.4194-1.6339 3.4255-1.4552 8.3554 0.2314 6.3828-0.17011 7.2395-2.6539 5.6624zm-333.58-3.8416c-0.36667-0.36666-0.66667-2.4212-0.66667-4.5657 0-4.8304-1.0809-6.9188-6.9022-13.336-8.9376-9.8533-10.021-12.093-11.574-23.924-0.77976-5.9405-1.8915-11.275-2.4706-11.854-1.9524-1.9524-1.1872-5.6346 1.4175-6.8214 4.6452-2.1165 7.5225 3.3089 3.8859 7.3273-1.4741 1.6288-1.5139 2.7722-0.38617 11.079 1.4659 10.797 2.1992 12.408 8.995 19.762 2.7953 3.025 5.9966 7.2183 7.1139 9.3184 3.3432 6.284 3.7918 16.219 0.58768 13.015zm317.57-2.495c-2.8944-2.8944-0.4031-8.4019 3.4636-7.6572 2.7665 0.53279 2.576 8.2074-0.21364 8.6072-1.1064 0.15858-2.5689-0.26892-3.25-0.95zm-304.4-11.869-0.33375-12.031-14-12.806-1-22.926-5.072-5.3528c-10.54-11.123-16.731-16.353-19.361-16.353-2.1856 0-2.5671-0.44577-2.5671-3 0-1.65 0.53353-3 1.1856-3 1.0609 0 13.824 11.26 24.943 22.005l4.1438 4.0045 0.15051 11.495 0.15052 11.495 13.799 14 0.15634 11c0.19117 13.451 0.18771 13.5-0.94526 13.5-0.50394 0-1.0664-5.414-1.25-12.031zm291.58 6.0312c0.32335-2.2 0.8477-5.7718 1.1652-7.9374 0.31753-2.1656 1.6818-5.1291 3.0316-6.5856 2.3914-2.5803 2.7145-2.6396 12.605-2.3126l10.15 0.33563 4.9295-6c2.7112-3.3 6.4921-8.3998 8.4019-11.333 3.4396-5.2826 5.1018-6.2534 3.8264-2.235-0.71373 2.2488-10.674 15.927-14.682 20.162-2.4054 2.5418-2.6694 2.5849-13.006 2.1252l-10.551-0.46923-1.0928 3.1348c-0.60104 1.7242-1.3978 5.8303-1.7705 9.1248-0.4834 4.2727-1.0959 5.99-2.1364 5.99-1.1332 0-1.3275-0.89273-0.87084-4zm-12.412-9.6097v-11.61l16.705-16.781h27.295l0.0147-10.25c9e-3 -6.2338 0.50878-11.226 1.2756-12.742 0.71554-1.4143 4.6332-4.3949 9.0581-6.8916 7.0439-3.9745 7.738-4.6356 7.184-6.8429-0.94089-3.749 0.26618-6.2733 2.9998-6.2733 3.1295 0 4.9537 3.2235 3.4327 6.0657-1.0306 1.9256-10.798 8.6617-17.333 11.954-3.9912 2.0106-4.5075 3.9637-4.291 16.23l0.18971 10.75-11.515 0.20201c-6.3334 0.11111-12.758 0.21894-14.277 0.23964-2.0838 0.0284-4.6025 1.8893-10.261 7.5812l-7.4993 7.5436-0.64178 11.217c-0.35298 6.1692-1.023 11.217-1.489 11.217-0.46596 0-0.84721-5.2244-0.84721-11.61zm-234 3.8111c0-6.5816-0.12883-6.9326-4.0371-11-4.5007-4.6839-4.3777-4.6536-12.375-3.0476l-5.7454 1.1538-10.421-10.386c-5.7318-5.7123-10.407-10.844-10.39-11.404 0.0171-0.55983 3.5907-4.7458 7.9414-9.3021l7.9102-8.2842 0.15597-24.716c0.0858-13.594-0.17435-25.538-0.57809-26.543-0.91978-2.2899 1.748-5.1902 3.9846-4.3319 2.4342 0.93411 2.9859 3.5257 1.1761 5.5254-1.402 1.5492-1.6213 5.099-1.6213 26.247v24.455l-7.9906 7.9658c-4.3948 4.3812-7.9948 8.2156-8 8.5209-5e-3 0.30532 4.0844 4.7515 9.0879 9.8805l9.0974 9.3254 14.198-2.3447 4.7016 4.7919c4.6504 4.7397 4.7065 4.8763 5.1536 12.542 0.35359 6.0622 0.15807 7.75-0.89779 7.75-1.0007 0-1.3498-1.7583-1.3498-6.7986zm223-16.046c0-21.575-0.11118-22.946-2-24.655-4.8542-4.393-0.42649-11.382 5.5-8.682 3.2006 1.4583 3.5025 6.539 0.5 8.414-1.9069 1.1909-2 2.332-2 24.508 0 14.84-0.362 23.259-1 23.259-0.63748 0-1-8.2817-1-22.845zm-32 10.709v-8.1364l9-8.0872v-19.82c0-21.887-0.0595-21.669 6.9172-25.277 1.663-0.85994 3.4389-2.3464 3.9466-3.3032s0.99222-7.3058 1.0768-14.109c0.12674-10.194-0.1337-12.687-1.481-14.176-2.6702-2.9506-1.4975-5.4552 2.5542-5.4552 2.7731 0 3.5473 0.42705 3.7846 2.0875 0.16404 1.1481-0.39846 2.6657-1.25 3.3724-1.2612 1.0467-1.5483 3.8508-1.5483 15.123 0 9.8401-0.36115 14.144-1.25 14.895-0.6875 0.58139-3.0895 2.3491-5.3378 3.9282l-4.0878 2.8711-1.3298 41.233-8.2549 7.4578 0.59887 7.766c0.55993 7.261 0.47085 7.766-1.3698 7.766-1.797 0-1.9687-0.70979-1.9687-8.1364zm-12-3.0792v-10.216l9.3797-9.5229 0.3396-18.446c0.21972-11.934-0.0238-18.67-0.68984-19.082-1.324-0.81829-1.339-5.2089-0.0205-6.0237 1.744-1.0779 4.991 0.55762 4.991 2.5139 0 1.0305-0.45 2.1517-1 2.4916-0.61135 0.37783-1 8.1965-1 20.117v19.499l-9 8.1907v10.346c0 8.53-0.26332 10.346-1.5 10.346-1.2354 0-1.5-1.8017-1.5-10.216zm-147-0.69445v-8.9101l15-13.425v-24.347l17-15.642v-20.397c0-13.717-0.37917-21.004-1.1578-22.251-1.6229-2.5986-0.36293-5.1189 2.559-5.1189 3.0892 0 4.5036 3.5238 2.2992 5.7281-1.2684 1.2683-1.4222 4.279-0.97804 19.138 0.67018 22.421 0.32221 23.683-8.7177 31.633-8.1433 7.1616-8.9817 9.2981-9.0258 23l-0.0322 10-14.947 12.887v8.3066c0 4.8711-0.41359 8.3066-1 8.3066-0.59185 0-1-3.6367-1-8.9101zm19 1.6098c0-5.1092 0.26179-5.7035 4-9.0807l4-3.6138v-28.759l19-17.441v-42.903c0-37.469 0.18998-42.903 1.5-42.903 1.3101 0 1.5 5.4575 1.5 43.118v43.118l-3.75 3.6476c-2.0625 2.0062-6.3375 5.9701-9.5 8.8087l-5.75 5.1612v28.791l-3.9525 3.3161c-3.5142 2.9483-3.9855 3.8743-4.25 8.3494-0.42669 7.2198-2.7975 7.5504-2.7975 0.39017zm80.2 1.1003c-1.6018-1.6018-1.5141-3.2944 0.24626-4.7554 1.1995-0.9955 1.4596-6.3146 1.5246-31.175l0.0784-29.974-2.7746-2.7998c-1.526-1.5399-4.9121-5.0971-7.5246-7.9048l-4.75-5.1051v-24.543c0-21.149 0.20741-24.543 1.5-24.543 1.293 0 1.5 3.4196 1.5 24.777v24.777l14.083 13.946-0.13592 30.5c-0.0748 16.775 0.19238 31.786 0.59364 33.357 0.50839 1.9911 0.30957 3.1233-0.65577 3.7347-1.8339 1.1614-2.2661 1.1272-3.6854-0.29202zm25.8-18.145c0-15.075-0.1554-16.486-2-18.155-2.2224-2.0112-2.6502-6.4498-0.8-8.3 1.5469-1.5469 6.0531-1.5469 7.6 0 1.8502 1.8502 1.4224 6.2888-0.8 8.3-1.8446 1.6693-2 3.08-2 18.155 0 10.23-0.37412 16.345-1 16.345s-1-6.115-1-16.345zm-51.75 9.6827c-1.4452-0.58314-1.6858-5.4837-0.33818-6.8877 1.1465-1.1945 1.717-124.23 0.5881-126.84-1.0377-2.3918 0.6173-5.1141 3.1091-5.1141 2.1151 0 3.1672 3.8251 1.5967 5.805-0.55668 0.7018-1.2296 26.61-1.6305 62.778-0.60972 55.009-0.51673 61.721 0.8711 62.872 2.16 1.7926 1.9443 5.7652-0.38057 7.0094-1.0638 0.56935-2.0763 0.99965-2.25 0.95623-0.17366-0.0434-0.87824-0.30592-1.5657-0.58333zm-23.583-8.0044c-1.1678-1.1678-0.71811-4.0458 0.83333-5.3333 1.0983-0.91147 1.5-3.3298 1.5-9.0293v-7.7844l10-8.3725v-61.907c0-40.605 0.3441-61.907 1-61.907 0.65604 0 1 21.585 1 62.755v62.755l-4.3729 3.4954c-4.2391 3.3884-4.3907 3.7061-4.9535 10.385-0.43142 5.1192-0.19098 7.643 0.93573 9.8218 1.1811 2.2839 1.2543 3.2481 0.33107 4.3604-1.2214 1.4717-5.0935 1.9417-6.2737 0.7615zm-71.167-11.333c-0.99549-1.1-2.4562-2-3.246-2-1.9165 0-8.1289-5.4031-14.234-12.38l-4.9694-5.6788 0.0873-13.721c0.048-7.5464-0.23651-14.508-0.63227-15.471-1.0263-2.496 0.18312-4.9566 2.2414-4.56 1.6043 0.30914 1.723 1.7539 1.3997 17.028l-0.35334 16.69 8.1786 8.1238c6.0118 5.9715 8.6223 7.9406 9.8533 7.4322 3.7237-1.5376 5.2548-1.6431 6.6801-0.46025 1.9235 1.5964 1.8972 3.4502-0.0768 5.4242-2.0439 2.0439-2.7463 1.9828-4.9286-0.42857zm279.21-1.6245c-0.38987-0.38987-0.70885-1.7887-0.70885-3.1086 0-2.028 0.42606-2.3507 2.75-2.0833 2.1823 0.2511 2.75 0.83252 2.75 2.8164 0 1.7547-0.60851 2.5871-2.0412 2.7922-1.1226 0.1607-2.3601-0.0268-2.75-0.41666zm-291.09-27.904c-2.1884-2.1884-0.61326-5.8854 2.6764-6.2813 3.2807-0.3949 5.3204 2.7998 3.7094 5.8099-1.2731 2.3789-4.258 2.5992-6.3858 0.47138zm-122.61-65.139c0-0.36744-0.50556-3.5712-1.1235-7.1195l-1.1235-6.4514-7.1118-3.2941c-3.9115-1.8118-7.398-3.1172-7.7479-2.901-0.64625 0.3994 2.4006 12.483 3.6624 14.524 0.7894 1.2773 10.313 5.8854 12.194 5.9001 0.6875 5e-3 1.25-0.29087 1.25-0.65832zm471.07-2.3652c4.1242-2.0819 6.3337-3.8854 7.0444-5.75 1.6194-4.2486 3.2885-12.151 2.6923-12.747-0.29643-0.29643-3.9273 1.0052-8.0686 2.8924-8.1458 3.7121-7.8545 3.2777-9.3097 13.888-0.78399 5.7167-0.43679 5.7947 7.6416 1.7167zm-383.14-35.217 2.1936-5.25-4.8103-4.228c-2.6456-2.3254-5.2238-4.1001-5.7291-3.9437-0.82489 0.25525-1.9346 2.8599-3.9808 9.3435-0.56108 1.7778 0.16456 2.8207 4.001 5.75 2.5775 1.9681 5.0116 3.5783 5.4092 3.5783s1.71-2.3625 2.9165-5.25zm269.43 2.0721c2.2791-1.7479 4.5232-3.4996 4.9867-3.8928 0.77752-0.65949-3.0634-12.929-4.0474-12.929-0.24014 0-2.6805 1.8921-5.4231 4.2046-3.8326 3.2317-4.8643 4.6914-4.4584 6.3084 0.84448 3.3647 3.5585 9.487 4.2056 9.487 0.32597 0 2.4574-1.4301 4.7366-3.1779zm-131.61-84.614c2.8875-4.2783 5.25-8.3456 5.25-9.0383 0-1.3148-9.3549-15.653-10.792-16.541-1.0086-0.62337-11.208 14.276-11.208 16.372 5.2e-4 1.7938 9.5914 17.003 10.716 16.993 0.43136-0.0038 3.1468-3.5073 6.0343-7.7856z" fill="#fff"/>
</svg>
